<?xml version="1.0" encoding="UTF-8" standalone="no" ?>
<!DOCTYPE svg PUBLIC "-//W3C//DTD SVG 1.1//EN" "http://www.w3.org/Graphics/SVG/1.1/DTD/svg11.dtd">
<svg xmlns="http://www.w3.org/2000/svg" xmlns:xlink="http://www.w3.org/1999/xlink" version="1.1" width="500" height="500" viewBox="0 0 500 500" xml:space="preserve">
<desc>Created with Fabric.js 5.3.0</desc>
<defs>
</defs>
<g transform="matrix(0.624535573 0 0 0.624535573 250 201.1396535909)" id="Ly_szr3UAzk24eXHAwaRK"  >
<path style="stroke: rgb(45,10,89); stroke-width: 42; stroke-dasharray: none; stroke-linecap: butt; stroke-dashoffset: 0; stroke-linejoin: miter; stroke-miterlimit: 4; fill: rgb(78,32,146); fill-rule: nonzero; opacity: 1;"  transform=" translate(0, 0.0000017025)" d="M -3.35679 -103.09245 C 94.86332999999999 -103.09245 177.93501 -27.57356 177.93501 70.64657000000001 C 177.93501 168.86669 98.22013000000001 12.766940000000012 0 12.766940000000012 C -98.22012 12.766940000000012 -177.93501 168.8667 -177.93501 70.64657000000001 C -177.93501 -27.573549999999983 -101.57692 -103.09245 -3.356790000000018 -103.09245 z" stroke-linecap="round" />
</g>
<g transform="matrix(0.582524258 0 0 1.0097086203 249.9999990001 292.7433302152)" id="gmgY4HhDaweZr3CaBhi2R"  >
<path style="stroke: rgb(45,10,89); stroke-width: 0; stroke-dasharray: none; stroke-linecap: butt; stroke-dashoffset: 0; stroke-linejoin: miter; stroke-miterlimit: 4; fill: rgb(45,10,89); fill-rule: nonzero; opacity: 1;"  transform=" translate(0.000005, 0.000005)" d="M -26.99162 -15.65016 C -26.99162 -21.91388 -18.1902 -26.991619999999998 -7.333090000000002 -26.991619999999998 L 7.333079999999997 -26.991619999999998 L 7.333079999999997 -26.991619999999998 C 18.190189999999998 -26.991619999999998 26.991609999999994 -21.913869999999996 26.991609999999994 -15.650159999999998 L 26.991609999999994 15.650150000000002 L 26.991609999999994 15.650150000000002 C 26.991609999999994 21.913870000000003 18.190189999999994 26.99161 7.333079999999995 26.99161 L -7.333090000000004 26.99161 L -7.333090000000004 26.99161 C -18.190200000000004 26.99161 -26.991620000000005 21.91386 -26.991620000000005 15.650150000000002 z" stroke-linecap="round" />
</g>
<g transform="matrix(0.582524258 0 0 2.0194172406 195.5622920174 319.9969965565)" id="sM5PwmryTnPfZ6T9QBrTt"  >
<path style="stroke: rgb(45,10,89); stroke-width: 0; stroke-dasharray: none; stroke-linecap: butt; stroke-dashoffset: 0; stroke-linejoin: miter; stroke-miterlimit: 4; fill: rgb(45,10,89); fill-rule: nonzero; opacity: 1;"  transform=" translate(0.000005, 0.000005)" d="M -26.99162 -21.32089 C -26.99162 -24.452749999999998 -18.1902 -26.991619999999998 -7.333090000000002 -26.991619999999998 L 7.333079999999997 -26.991619999999998 L 7.333079999999997 -26.991619999999998 C 18.190189999999998 -26.991619999999998 26.991609999999994 -24.452749999999998 26.991609999999994 -21.32089 L 26.991609999999994 21.320880000000002 L 26.991609999999994 21.320880000000002 C 26.991609999999994 24.452740000000002 18.190189999999994 26.99161 7.333079999999995 26.99161 L -7.333090000000004 26.99161 L -7.333090000000004 26.99161 C -18.190200000000004 26.99161 -26.991620000000005 24.452740000000002 -26.991620000000005 21.320880000000002 z" stroke-linecap="round" />
</g>
<g transform="matrix(0.582524258 0 0 1.4375976528 304.4377059827 304.2927427775)" id="Sll5qjUdKHcxRIkHM4OBE"  >
<path style="stroke: rgb(45,10,89); stroke-width: 0; stroke-dasharray: none; stroke-linecap: butt; stroke-dashoffset: 0; stroke-linejoin: miter; stroke-miterlimit: 4; fill: rgb(45,10,89); fill-rule: nonzero; opacity: 1;"  transform=" translate(0.000005, 0)" d="M -26.99162 -19.02585 C -26.99162 -23.42522 -18.1902 -26.991619999999998 -7.333090000000002 -26.991619999999998 L 7.333079999999997 -26.991619999999998 L 7.333079999999997 -26.991619999999998 C 18.190189999999998 -26.991619999999998 26.991609999999994 -23.425219999999996 26.991609999999994 -19.02585 L 26.991609999999994 19.02585 L 26.991609999999994 19.02585 C 26.991609999999994 23.42522 18.190189999999994 26.991619999999998 7.333079999999995 26.991619999999998 L -7.333090000000004 26.991619999999998 L -7.333090000000004 26.991619999999998 C -18.190200000000004 26.991619999999998 -26.991620000000005 23.425219999999996 -26.991620000000005 19.02585 z" stroke-linecap="round" />
</g>
</svg>